<?xml version="1.0" encoding="utf-8"?>
<!-- Generator: Adobe Illustrator 25.2.3, SVG Export Plug-In . SVG Version: 6.00 Build 0)  -->
<svg version="1.1" id="Layer_1" xmlns="http://www.w3.org/2000/svg" xmlns:xlink="http://www.w3.org/1999/xlink" x="0px" y="0px"
	 viewBox="0 0 186.2 200" style="enable-background:new 0 0 186.2 200;" xml:space="preserve">
<style type="text/css">
	.st0{fill:#DD0031;}
	.st1{fill:#C3002F;}
	.st2{fill:#FFFFFF;}
</style>
<g>
	<g>
		<polygon class="st0" points="93.1,0 93.1,0 93.1,0 0,33.2 14.2,156.3 93.1,200 93.1,200 93.1,200 172,156.3 186.2,33.2 		"/>
		<polygon class="st1" points="93,0 93,22.2 93,22.1 93,123.4 93,123.4 93,200 93,200 171.9,156.3 186.1,33.2 		"/>
		<path class="st2" d="M93.1,22.45L35.3,152.05l0,0h21.55l0,0l11.62-29h49.06l11.62,29l0,0h21.55l0,0L93.1,22.45L93.1,22.45
			L93.1,22.45L93.1,22.45L93.1,22.45z M110.1,105.05h-34l17-40.9L110.1,105.05z"/>
	</g>
</g>
</svg>
