<?xml version="1.0" encoding="utf-8"?>
<!-- Generator: Adobe Illustrator 25.2.3, SVG Export Plug-In . SVG Version: 6.00 Build 0)  -->
<svg version="1.1" id="Layer_1" xmlns="http://www.w3.org/2000/svg" xmlns:xlink="http://www.w3.org/1999/xlink" x="0px" y="0px"
	 viewBox="0 0 52.96 31.68" style="enable-background:new 0 0 52.96 31.68;" xml:space="preserve">
<style type="text/css">
	.st0{fill:#FFFFFF;}
	.st1{fill-rule:evenodd;clip-rule:evenodd;fill:#FF9900;}
</style>
<g>
	<g>
		<path class="st0" d="M15.04,11.57c0,0.65,0.07,1.18,0.19,1.57c0.14,0.39,0.32,0.81,0.57,1.27c0.09,0.14,0.12,0.28,0.12,0.41
			c0,0.18-0.11,0.35-0.34,0.53l-1.11,0.74c-0.16,0.11-0.32,0.16-0.46,0.16c-0.18,0-0.35-0.09-0.53-0.25
			c-0.25-0.26-0.46-0.55-0.64-0.83c-0.18-0.3-0.35-0.63-0.55-1.04c-1.38,1.62-3.11,2.43-5.2,2.43c-1.49,0-2.67-0.42-3.54-1.27
			c-0.87-0.85-1.31-1.97-1.31-3.38c0-1.5,0.53-2.71,1.61-3.63S6.37,6.9,8.19,6.9c0.6,0,1.22,0.05,1.87,0.14
			c0.65,0.09,1.33,0.23,2.03,0.39V6.14c0-1.34-0.28-2.27-0.83-2.82C10.7,2.78,9.75,2.52,8.39,2.52c-0.62,0-1.26,0.07-1.91,0.23
			S5.19,3.1,4.57,3.34c-0.28,0.12-0.5,0.19-0.62,0.23C3.82,3.61,3.74,3.63,3.67,3.63c-0.25,0-0.37-0.18-0.37-0.55V2.22
			c0-0.28,0.04-0.49,0.12-0.62s0.25-0.25,0.49-0.37c0.61-0.32,1.35-0.58,2.21-0.79C6.98,0.21,7.89,0.1,8.86,0.1
			c2.09,0,3.62,0.48,4.6,1.43c0.97,0.95,1.46,2.4,1.46,4.33v5.71H15.04z M7.84,14.19c0.58,0,1.18-0.11,1.81-0.32
			c0.63-0.21,1.2-0.6,1.67-1.13c0.28-0.33,0.49-0.7,0.6-1.13c0.11-0.42,0.18-0.93,0.18-1.53V9.35c-0.51-0.12-1.06-0.23-1.62-0.3
			C9.92,8.98,9.37,8.94,8.82,8.94c-1.18,0-2.04,0.23-2.62,0.7c-0.58,0.48-0.86,1.14-0.86,2.03c0,0.83,0.21,1.44,0.65,1.87
			C6.41,13.98,7.03,14.19,7.84,14.19z M21.93,16.15c-0.32,0-0.53-0.05-0.67-0.18c-0.14-0.11-0.27-0.35-0.37-0.69L16.73,1.62
			c-0.11-0.35-0.16-0.58-0.16-0.71c0-0.28,0.14-0.44,0.42-0.44h1.82c0.33,0,0.56,0.05,0.68,0.17c0.14,0.1,0.24,0.35,0.35,0.68
			l2.93,11.55L25.5,1.33c0.09-0.35,0.19-0.58,0.33-0.68c0.14-0.1,0.38-0.17,0.7-0.17h1.4c0.33,0,0.56,0.05,0.7,0.17
			c0.14,0.1,0.26,0.35,0.33,0.68l2.76,11.69l3.02-11.69c0.1-0.35,0.23-0.58,0.35-0.68c0.14-0.1,0.37-0.17,0.68-0.17h1.62
			c0.28,0,0.44,0.14,0.44,0.44c0,0.09-0.02,0.17-0.03,0.28c-0.02,0.1-0.05,0.24-0.12,0.44l-4.21,13.49
			c-0.1,0.35-0.23,0.58-0.37,0.68c-0.14,0.1-0.37,0.17-0.66,0.17h-1.48c0,0-0.56,0.09-0.7-0.04c-0.14-0.12-0.26-0.35-0.33-0.7
			L27.18,3.87l-2.71,11.34c-0.09,0.35-0.19,0.58-0.33,0.7c-0.14,0.12-0.7,0.23-0.7,0.23H21.93z M44.62,16.58
			c-0.92,0-1.83-0.11-2.72-0.32c-0.88-0.21-1.57-0.44-2.03-0.71c-0.28-0.16-0.48-0.34-0.55-0.49c-0.07-0.16-0.11-0.34-0.11-0.49
			v-0.9c0-0.37,0.14-0.55,0.41-0.55c0.11,0,0.21,0.02,0.32,0.05c0.11,0.04,0.26,0.11,0.44,0.18c0.6,0.26,1.25,0.48,1.94,0.62
			c0.71,0.14,1.39,0.21,2.1,0.21c1.11,0,1.98-0.19,2.58-0.58c0.6-0.39,0.92-0.95,0.92-1.68c0-0.49-0.16-0.9-0.48-1.23
			c-0.32-0.34-0.92-0.64-1.78-0.92l-2.56-0.79c-1.29-0.41-2.24-1.01-2.82-1.8C39.7,6.4,39.4,5.54,39.4,4.62
			c0-0.74,0.16-1.39,0.48-1.96c0.32-0.56,0.74-1.06,1.27-1.45c0.53-0.41,1.13-0.71,1.83-0.92C43.69,0.09,44.43,0,45.21,0
			c0.39,0,0.79,0.02,1.18,0.07c0.41,0.05,0.78,0.12,1.15,0.19c0.35,0.09,0.69,0.18,1.01,0.28c0.32,0.11,0.56,0.21,0.74,0.32
			c0.25,0.14,0.42,0.28,0.53,0.44c0.11,0.14,0.16,0.34,0.16,0.58v0.83c0,0.37-0.14,0.56-0.41,0.56c-0.14,0-0.37-0.07-0.67-0.21
			c-1.01-0.46-2.13-0.69-3.39-0.69c-1.01,0-1.8,0.16-2.35,0.49c-0.55,0.34-0.83,0.85-0.83,1.57c0,0.49,0.18,0.92,0.53,1.25
			s1.01,0.67,1.94,0.97l2.51,0.79c1.27,0.41,2.19,0.97,2.73,1.69c0.55,0.72,0.81,1.55,0.81,2.47c0,0.76-0.16,1.45-0.46,2.05
			c-0.32,0.6-0.74,1.13-1.29,1.55c-0.55,0.44-1.2,0.76-1.96,0.99C46.35,16.46,45.52,16.58,44.62,16.58z"/>
		<g>
			<path class="st1" d="M47.88,25.13c-5.79,4.28-14.21,6.55-21.45,6.55c-10.15,0-19.29-3.75-26.19-9.99
				c-0.55-0.49-0.05-1.16,0.6-0.77c7.47,4.33,16.68,6.96,26.21,6.96c6.43,0,13.49-1.34,19.99-4.09C48,23.35,48.83,24.43,47.88,25.13
				z"/>
			<path class="st1" d="M50.29,22.38c-0.74-0.95-4.9-0.46-6.78-0.23c-0.56,0.07-0.65-0.42-0.14-0.79c3.31-2.32,8.75-1.66,9.39-0.88
				c0.63,0.79-0.18,6.23-3.28,8.84c-0.48,0.41-0.93,0.19-0.72-0.33C49.46,27.24,51.03,23.32,50.29,22.38z"/>
		</g>
	</g>
</g>
</svg>
