<?xml version="1.0" encoding="utf-8"?>
<!-- Generator: Adobe Illustrator 25.2.3, SVG Export Plug-In . SVG Version: 6.00 Build 0)  -->
<svg version="1.1" id="Layer_1" xmlns="http://www.w3.org/2000/svg" xmlns:xlink="http://www.w3.org/1999/xlink" x="0px" y="0px"
	 viewBox="0 0 307 315" style="enable-background:new 0 0 307 315;" xml:space="preserve">
<style type="text/css">
	.st0{fill:#EC3C2C;}
</style>
<g>
	<path class="st0" d="M275.27,105.02c-13.85,7.8-26.86,15.12-39.86,22.45c-25.78,14.53-51.59,29.02-77.32,43.65
		c-2.92,1.66-5.07,1.79-8.11,0.07C107.32,147,64.57,122.95,21.79,98.95c-2.56-1.44-3.89-2.88-3.86-6.08c0.03-3.22,0.94-5,3.82-6.61
		c42.64-23.91,85.23-47.91,127.75-72.04c3.33-1.89,5.72-1.83,9.01,0.04c31.21,17.77,62.53,35.35,93.82,52.99
		c4.31,2.43,6.09,5.95,4.52,8.97c-1.59,3.07-8.67,4.71-12.06,2.81c-29.12-16.4-58.25-32.79-87.36-49.2
		c-1.88-1.06-3.41-2.08-5.88-0.68C114.38,50.22,77.14,71.17,39.79,92.21c0.47,1.56,1.86,1.85,2.88,2.42
		c35.77,20.17,71.59,40.27,107.31,60.54c3.03,1.72,5.17,1.59,8.1-0.08c40.07-22.71,80.22-45.29,120.34-67.9
		c6.8-3.83,11.48-1.17,11.48,6.54c0,14.32-0.09,28.65,0.07,42.97c0.03,3.02-0.79,4.73-3.52,6.26
		c-43.08,24.15-86.11,48.39-129.07,72.74c-2.81,1.59-4.75,1.09-7.26-0.33c-37.21-21.01-74.47-41.94-111.71-62.88
		c-1.56-0.88-3.17-1.69-5.65-3.01c0,9.39-0.03,18.08,0.03,26.76c0.01,1.61,1.63,1.99,2.74,2.61c38.38,21.64,76.8,43.22,115.13,64.95
		c2.85,1.62,4.81,0.93,7.27-0.46c40.4-22.81,80.83-45.56,121.26-68.31c6.82-3.84,10.71-1.6,10.71,6.11
		c0,14.66-0.09,29.31,0.08,43.96c0.04,3.1-1.03,4.66-3.69,6.16c-42.93,24.07-85.81,48.24-128.64,72.47c-2.59,1.47-4.5,1.63-7.21,0.1
		c-42.97-24.34-86.01-48.55-129.04-72.8c-2.89-1.63-4.7-7.95-3.13-10.76c1.42-2.55,6.37-3.4,9.58-1.59
		c39.85,22.42,79.73,44.79,119.49,67.37c4.61,2.62,7.98,3.1,12.99,0.23c36.63-21.03,73.48-41.66,110.36-62.25
		c3.54-1.98,4.91-4.16,4.66-8.15c-0.34-5.47-0.08-10.99-0.09-16.48c0-6.15-0.02-6.17-5.15-3.28
		c-33.76,19.01-67.51,38.04-101.27,57.06c-3.77,2.12-7.61,4.12-11.26,6.43c-2.58,1.64-4.65,1.44-7.29-0.05
		c-38.35-21.71-76.75-43.3-115.14-64.93c-4.49-2.53-8.89-5.24-13.49-7.55c-2.74-1.37-3.71-3.08-3.68-6.18
		c0.17-14.99,0.06-29.98,0.08-44.96c0.01-6.29,4.27-8.67,9.86-5.53c40.57,22.83,81.16,45.64,121.67,68.59
		c3.12,1.77,5.37,1.91,8.56,0.1c37.75-21.41,75.58-42.68,113.45-63.88c2.64-1.48,3.83-3.05,3.74-6.17
		C275.12,121.46,275.27,113.81,275.27,105.02z"/>
</g>
</svg>
