<?xml version="1.0" encoding="utf-8"?>
<!-- Generator: Adobe Illustrator 25.2.3, SVG Export Plug-In . SVG Version: 6.00 Build 0)  -->
<svg version="1.1" id="Layer_1" xmlns="http://www.w3.org/2000/svg" xmlns:xlink="http://www.w3.org/1999/xlink" x="0px" y="0px"
	 viewBox="0 0 76.09 65.01" style="enable-background:new 0 0 76.09 65.01;" xml:space="preserve">
<style type="text/css">
	.st0{stroke:#000000;stroke-width:5.3725;stroke-miterlimit:10;}
	.st1{fill:#336791;}
	.st2{fill:none;stroke:#FFFFFF;stroke-width:1.79;stroke-linecap:round;stroke-linejoin:round;stroke-miterlimit:10;}
	.st3{fill:none;stroke:#FFFFFF;stroke-width:1.79;stroke-linecap:round;stroke-linejoin:bevel;stroke-miterlimit:10;}
	.st4{fill:none;stroke:#FFFFFF;stroke-width:1.79;stroke-linejoin:round;stroke-miterlimit:10;}
	.st5{fill:#FFFFFF;stroke:#FFFFFF;stroke-width:0.5975;stroke-miterlimit:10;}
	.st6{fill:#FFFFFF;stroke:#FFFFFF;stroke-width:0.2975;stroke-miterlimit:10;}
</style>
<g>
	<g>
		<path class="st0" d="M53.4,47.59c0.41-3.39,0.29-3.89,2.81-3.34l0.64,0.06c1.94,0.09,4.48-0.31,6-1.01
			c3.21-1.49,5.12-3.98,1.95-3.33c-7.22,1.49-7.75-0.96-7.75-0.96c7.63-11.32,10.83-25.7,8.07-29.22
			c-7.51-9.6-20.51-5.06-20.73-4.94l-0.07,0.01c-1.42-0.3-3-0.47-4.83-0.5c-3.27-0.05-5.75,0.86-7.64,2.29
			c0,0-23.19-9.56-22.11,12.02c0.23,4.59,6.57,34.75,14.15,25.62c2.77-3.33,5.45-6.15,5.45-6.15c1.32,0.88,2.92,1.33,4.58,1.17
			l0.13-0.11c-0.04,0.43-0.02,0.87,0.05,1.29c-1.95,2.18-1.38,2.56-5.27,3.36c-3.94,0.81-1.62,2.26-0.11,2.64
			c1.84,0.46,6.08,1.11,8.95-2.9l-0.11,0.46c0.76,0.61,0.71,4.4,0.83,7.1c0.11,2.7,0.29,5.23,0.84,6.72
			c0.55,1.49,1.2,5.33,6.33,4.25c4.28-0.92,7.56-2.24,7.86-14.52"/>
		<path class="st1" d="M64.78,39.71c-7.22,1.49-7.75-0.96-7.75-0.96c7.63-11.32,10.82-25.7,8.07-29.22
			c-7.51-9.6-20.51-5.06-20.73-4.94L44.3,4.61c-1.59-0.32-3.2-0.49-4.82-0.5c-3.27-0.05-5.75,0.86-7.64,2.28
			c0,0-23.19-9.56-22.11,12.02C9.96,23,16.3,53.16,23.88,44.04c2.79-3.35,5.46-6.17,5.46-6.17c1.33,0.88,2.92,1.33,4.59,1.17
			l0.13-0.11c-0.04,0.43-0.02,0.87,0.05,1.3c-1.95,2.18-1.38,2.56-5.27,3.36c-3.94,0.81-1.62,2.26-0.11,2.64
			c1.83,0.46,6.08,1.11,8.95-2.91l-0.11,0.46c0.76,0.61,1.3,3.98,1.21,7.04c-0.09,3.06-0.15,5.15,0.45,6.79
			c0.6,1.64,1.2,5.33,6.33,4.25c4.28-0.92,6.5-3.3,6.81-7.26c0.22-2.82,0.72-2.4,0.75-4.92l0.4-1.19c0.46-3.83,0.08-5.06,2.71-4.48
			l0.64,0.06c1.94,0.09,4.49-0.31,5.97-1.01C66.04,41.55,67.95,39.06,64.78,39.71L64.78,39.71z"/>
		<g>
			<g>
				<path class="st2" d="M37.98,42.17c-0.2,7.12,0.05,14.28,0.74,16c0.69,1.72,2.19,5.12,7.31,4.03c4.28-0.92,5.84-2.69,6.52-6.62
					l1.58-12.54 M31.83,6.5c0,0-23.21-9.49-22.13,12.08c0.23,4.59,6.58,34.75,14.15,25.62c2.76-3.33,5.26-5.94,5.26-5.94
					 M44.37,4.77c-0.8,0.25,12.91-5.01,20.7,4.95c2.75,3.52-0.44,17.89-8.07,29.22"/>
				<path class="st3" d="M57,38.93c0,0,0.5,2.45,7.75,0.96c3.17-0.66,1.26,1.83-1.95,3.32c-2.64,1.23-8.54,1.54-8.64-0.15
					c-0.25-4.36,3.11-3.04,2.87-4.13c-0.22-0.99-1.73-1.95-2.72-4.36c-0.87-2.1-11.9-18.23,3.06-15.83
					c0.55-0.11-3.9-14.25-17.9-14.45c-14-0.21-13.56,17.21-13.56,17.21"/>
			</g>
			<g>
				<path class="st4" d="M34.06,40.42c-1.95,2.18-1.38,2.56-5.27,3.37c-3.94,0.81-1.62,2.26-0.11,2.64
					c1.83,0.46,6.08,1.11,8.95-2.91c0.88-1.22-0.01-3.17-1.21-3.67C35.83,39.61,35.06,39.31,34.06,40.42L34.06,40.42z"/>
				<path class="st2" d="M33.93,40.38c-0.2-1.28,0.42-2.81,1.08-4.59c0.99-2.67,3.29-5.35,1.45-13.84
					c-1.37-6.32-10.55-1.32-10.55-0.46s0.42,4.35-0.15,8.41c-0.74,5.31,3.38,9.79,8.11,9.33"/>
			</g>
		</g>
		<g>
			<path class="st5" d="M31.75,21.36c-0.04,0.29,0.54,1.08,1.29,1.18s1.4-0.5,1.44-0.8s-0.54-0.62-1.29-0.72
				S31.78,21.07,31.75,21.36z"/>
			<path class="st6" d="M54.66,20.77c0.04,0.29-0.54,1.08-1.29,1.18c-0.75,0.1-1.4-0.5-1.44-0.8s0.54-0.61,1.29-0.72
				S54.62,20.48,54.66,20.77z"/>
		</g>
		<path class="st2" d="M57.35,18.74c0.12,2.3-0.49,3.86-0.57,6.31c-0.12,3.56,1.69,7.63-1.03,11.7"/>
	</g>
</g>
</svg>
