<?xml version="1.0" encoding="utf-8"?>
<!-- Generator: Adobe Illustrator 25.2.3, SVG Export Plug-In . SVG Version: 6.00 Build 0)  -->
<svg version="1.1"
	 id="svg2" inkscape:version="0.43" sodipodi:docbase="/home/sdeibel" sodipodi:version="0.32" xmlns:cc="http://web.resource.org/cc/" xmlns:dc="http://purl.org/dc/elements/1.1/" xmlns:inkscape="http://www.inkscape.org/namespaces/inkscape" xmlns:rdf="http://www.w3.org/1999/02/22-rdf-syntax-ns#" xmlns:sodipodi="http://inkscape.sourceforge.net/DTD/sodipodi-0.dtd" xmlns:svg="http://www.w3.org/2000/svg"
	 xmlns="http://www.w3.org/2000/svg" xmlns:xlink="http://www.w3.org/1999/xlink" x="0px" y="0px" viewBox="0 0 121.99 122.87"
	 style="enable-background:new 0 0 121.99 122.87;" xml:space="preserve">
<style type="text/css">
	.st0{fill:url(#path1948_1_);}
	.st1{fill:url(#path1950_1_);}
</style>
<sodipodi:namedview  bordercolor="#666666" borderopacity="1.0" id="base" inkscape:current-layer="svg2" inkscape:cx="243.02499" inkscape:cy="71.887497" inkscape:pageopacity="0.0" inkscape:pageshadow="2" inkscape:window-height="543" inkscape:window-width="791" inkscape:window-x="0" inkscape:window-y="0" inkscape:zoom="1.4340089" pagecolor="#ffffff">
	</sodipodi:namedview>
<g id="g2303">
	
		<linearGradient id="path1948_1_" gradientUnits="userSpaceOnUse" x1="401.2935" y1="-155.4496" x2="510.3098" y2="-249.2435" gradientTransform="matrix(0.5625 0 0 -0.568 -222.8797 -78.6937)">
		<stop  offset="0" style="stop-color:#5A9FD4"/>
		<stop  offset="1" style="stop-color:#306998"/>
	</linearGradient>
	<path id="path1948" class="st0" d="M60.51,6.4c-4.58,0.02-8.96,0.41-12.81,1.09c-11.35,2-13.41,6.2-13.41,13.94v10.22H61.1v3.41
		H34.29H24.23c-7.79,0-14.62,4.68-16.75,13.59c-2.46,10.21-2.57,16.59,0,27.25c1.91,7.94,6.46,13.59,14.25,13.59h9.22V77.24
		c0-8.85,7.66-16.66,16.75-16.66h26.78c7.45,0,13.41-6.14,13.41-13.62V21.43c0-7.27-6.13-12.72-13.41-13.94
		C69.87,6.72,65.09,6.38,60.51,6.4z M46.01,14.62c2.77,0,5.03,2.3,5.03,5.12c0,2.82-2.26,5.09-5.03,5.09
		c-2.78,0-5.03-2.28-5.03-5.09C40.98,16.92,43.23,14.62,46.01,14.62z"/>
	
		<linearGradient id="path1950_1_" gradientUnits="userSpaceOnUse" x1="552.4562" y1="-306.0115" x2="513.5266" y2="-250.9327" gradientTransform="matrix(0.5625 0 0 -0.568 -222.8797 -78.6937)">
		<stop  offset="0" style="stop-color:#FFD43B"/>
		<stop  offset="1" style="stop-color:#FFE873"/>
	</linearGradient>
	<path id="path1950" class="st1" d="M91.23,35.05v11.91c0,9.23-7.83,17-16.75,17H47.7c-7.34,0-13.41,6.28-13.41,13.62v25.53
		c0,7.27,6.32,11.54,13.41,13.62c8.49,2.5,16.63,2.95,26.78,0c6.75-1.95,13.41-5.89,13.41-13.62V92.9H61.1v-3.41h26.78h13.41
		c7.79,0,10.7-5.44,13.41-13.59c2.8-8.4,2.68-16.48,0-27.25c-1.93-7.76-5.6-13.59-13.41-13.59H91.23z M76.17,99.71
		c2.78,0,5.03,2.28,5.03,5.09c0,2.83-2.25,5.12-5.03,5.12c-2.77,0-5.03-2.3-5.03-5.12C71.14,101.99,73.4,99.71,76.17,99.71z"/>
</g>
</svg>
