<?xml version="1.0" encoding="utf-8"?>
<!-- Generator: Adobe Illustrator 25.2.3, SVG Export Plug-In . SVG Version: 6.00 Build 0)  -->
<svg version="1.1" id="Layer_1" xmlns="http://www.w3.org/2000/svg" xmlns:xlink="http://www.w3.org/1999/xlink" x="0px" y="0px"
	 viewBox="0 0 68.19 64" style="enable-background:new 0 0 68.19 64;" xml:space="preserve">
<style type="text/css">
	.st0{fill:#EE4C2C;}
</style>
<g>
	<g transform="matrix(2.21262 0 0 2.21262 -39.453867 -1.770085)">
		<path class="st0" d="M41.75,9.3l-2.1,2.1c3.61,3.61,3.5,9.58-0.36,13.04c-3.37,3.03-8.62,3.03-11.99,0
			c-3.85-3.46-3.97-9.42-0.36-13.04l5.6-5.6l0.7-0.8V0.8l-8.5,8.5c-4.67,4.62-4.7,12.15-0.09,16.81c0.03,0.03,0.06,0.06,0.09,0.09
			c4.62,4.67,12.15,4.7,16.81,0.09c0.03-0.03,0.06-0.06,0.09-0.09C46.45,21.5,46.45,13.9,41.75,9.3z"/>
		<circle class="st0" cx="37.41" cy="7.1" r="1.6"/>
	</g>
</g>
</svg>
