<?xml version="1.0" encoding="utf-8"?>
<!-- Generator: Adobe Illustrator 25.2.3, SVG Export Plug-In . SVG Version: 6.00 Build 0)  -->
<svg version="1.1" id="svg2320" xmlns:svg="http://www.w3.org/2000/svg"
	 xmlns="http://www.w3.org/2000/svg" xmlns:xlink="http://www.w3.org/1999/xlink" x="0px" y="0px" viewBox="0 0 498 420"
	 style="enable-background:new 0 0 498 420;" xml:space="preserve">
<style type="text/css">
	.st0{fill:#007CC2;}
</style>
<g id="layer1" transform="translate(-310.37551,-505.82825)">
	<path id="path2440" class="st0" d="M565.56,505.83c-14.48-0.33-29.44,1.37-44.77,5.19c-70.85,17.7-150.17,108.84-63.56,213.94
		l51.69,62.57l14.59,17.81c9.79,11.64,25.82,11.44,37.59,1.73c11.83-9.75,15.2-25.75,5.44-37.59c-0.01-0.02-4.14-5.01-5.94-7.17
		h0.25c-3.74-4.49-4.55-5.25-8.41-9.89c-18.71-22.5-40.07-48.48-40.07-48.48c-37.6-45.64-20.82-102.02,30.17-134.05
		c44.93-28.22,127.39-18.14,155.81,28.2C680.47,545.25,628.31,507.25,565.56,505.83z M575.94,616.14
		c-6.68-0.23-13.66,2.32-19.54,7.17c-11.85,9.76-15.19,25.78-5.44,37.59c0.02,0.03,1.2,1.49,3.22,3.96
		c22.42,26.93,52.19,63.07,52.19,63.07c37.61,45.64,20.82,101.77-30.17,133.8c-44.92,28.21-127.39,18.11-155.81-28.2
		c22.03,65,95.87,107.49,177.58,87.06c70.87-17.73,150.17-108.62,63.56-213.69l-60.59-73.21l-6.93-8.66
		C589.1,619.22,582.63,616.36,575.94,616.14z"/>
</g>
</svg>
