<?xml version="1.0" encoding="utf-8"?>
<!-- Generator: Adobe Illustrator 25.2.3, SVG Export Plug-In . SVG Version: 6.00 Build 0)  -->
<svg version="1.1"
	 id="Layer_1" inkscape:version="1.0.2 (e86c870879, 2021-01-15, custom)" xmlns:cc="http://creativecommons.org/ns#" xmlns:dc="http://purl.org/dc/elements/1.1/" xmlns:inkscape="http://www.inkscape.org/namespaces/inkscape" xmlns:rdf="http://www.w3.org/1999/02/22-rdf-syntax-ns#" xmlns:sodipodi="http://sodipodi.sourceforge.net/DTD/sodipodi-0.dtd"
	 xmlns="http://www.w3.org/2000/svg" xmlns:xlink="http://www.w3.org/1999/xlink" x="0px" y="0px" viewBox="0 0 414 215"
	 style="enable-background:new 0 0 414 215;" xml:space="preserve">
<style type="text/css">
	.st0{fill-rule:evenodd;clip-rule:evenodd;fill:#E25A1C;}
	.st1{fill-rule:evenodd;clip-rule:evenodd;fill:#FFFFFF;}
	.st2{fill:#FFFFFF;}
</style>
<sodipodi:namedview  bordercolor="#666666" borderopacity="1" gridtolerance="10" guidetolerance="10" inkscape:current-layer="g12650" inkscape:cx="89.093483" inkscape:cy="177.49819" inkscape:pageopacity="0" inkscape:pageshadow="2" inkscape:window-height="1014" inkscape:window-maximized="1" inkscape:window-width="1920" inkscape:window-x="0" inkscape:window-y="36" inkscape:zoom="1.086315" objecttolerance="10" pagecolor="#ffffff" showgrid="false">
	</sodipodi:namedview>
<g transform="matrix(1.33 0 0 1.33 0 4.05e-6)" inkscape:groupmode="layer" inkscape:label="spark">
	<path class="st0" d="M284,81.5c-0.27-0.57-0.39-0.86-0.54-1.14c-3.89-7.4-7.77-14.8-11.7-22.2c-0.39-0.74-0.34-1.18,0.2-1.82
		c6.19-7.23,12.3-14.5,18.5-21.7c0.22-0.25,0.41-0.52,0.5-0.98c-1.8,0.47-3.6,0.93-5.41,1.41c-7.47,1.98-15,3.95-22.4,5.96
		c-0.7,0.19-1.01-0.02-1.36-0.59c-4.24-7.09-8.51-14.2-12.8-21.2c-0.22-0.37-0.46-0.72-0.93-1.03c-0.34,1.89-0.69,3.77-1.03,5.66
		c-1.19,6.67-2.38,13.3-3.56,20c-0.13,0.72-0.3,1.44-0.37,2.16c-0.06,0.69-0.41,0.94-1.04,1.14c-8.81,2.77-17.6,5.56-26.4,8.35
		c-0.39,0.12-0.76,0.28-1.18,0.66c7.2,2.86,14.4,5.72,21.7,8.63c-0.27,0.21-0.44,0.38-0.64,0.5c-4.5,2.91-9.01,5.82-13.5,8.74
		c-0.54,0.35-0.96,0.4-1.57,0.13c-5.38-2.42-10.8-4.8-16.2-7.2c-2.42-1.08-4.59-2.51-6.28-4.59c-3.83-4.68-3.07-10,2.03-13.3
		c1.67-1.07,3.57-1.86,5.46-2.48c8.63-2.81,17.3-5.52,25.9-8.24c0.73-0.23,1.06-0.56,1.2-1.34c1.16-6.68,2.35-13.4,3.56-20
		c0.64-3.57,0.98-7.22,2.72-10.5c0.66-1.26,1.46-2.49,2.42-3.54c3.44-3.82,8.23-3.96,11.9-0.33c1.23,1.23,2.28,2.67,3.19,4.16
		c4,6.53,7.94,13.1,11.9,19.7c0.46,0.78,0.88,0.93,1.74,0.71c9.65-2.59,19.3-5.14,29-7.69c2-0.53,4.01-0.72,6.06-0.33
		c4.45,0.83,6.4,4.22,4.89,8.53c-0.68,1.96-1.87,3.61-3.2,5.18c-6.74,7.93-13.5,15.9-20.2,23.8c-0.55,0.65-0.56,1.11-0.18,1.84
		c4.04,7.61,8.04,15.2,12.1,22.9c0.96,1.82,1.7,3.72,1.72,5.81c0.05,4.76-3.44,8.66-8.17,9.36c-2.65,0.39-5.11-0.18-7.6-0.94
		c-6.05-1.87-12.1-3.71-18.2-5.54c-0.56-0.17-0.78-0.39-0.88-1c-0.7-4.27-1.46-8.53-2.2-12.8c-0.02-0.12,0.02-0.24,0.04-0.5
		c6.91,1.91,13.8,3.79,20.9,5.76"/>
	<path class="st1" d="M272,144c-5.46-0.01-10.9-0.04-16.4-0.01c-0.72,0-1.13-0.21-1.53-0.82c-6.46-9.84-13-19.7-19.4-29.5
		c-0.21-0.31-0.43-0.61-0.79-1.14c-1.39,10.6-2.76,21-4.13,31.4h-14.3c0.17-1.39,0.32-2.74,0.49-4.08c1.39-10.7,2.8-21.3,4.2-32
		c1.34-10.2,2.67-20.4,4.03-30.6c0.04-0.3,0.24-0.69,0.49-0.85c4.92-3.21,9.86-6.39,14.8-9.57c0.07-0.05,0.17-0.05,0.43-0.12
		c-1.49,11.4-2.97,22.7-4.46,34c0.06,0.04,0.12,0.08,0.18,0.12c7.75-8.58,15.5-17.2,23.4-25.9c0.23,1.32,0.43,2.45,0.62,3.58
		c0.55,3.23,1.09,6.48,1.68,9.71c0.12,0.65-0.05,1.05-0.49,1.51c-5.01,5.24-10,10.5-15,15.8c-0.22,0.23-0.43,0.47-0.68,0.74
		c0.16,0.25,0.3,0.5,0.46,0.73c8.61,12.1,17.2,24.2,25.8,36.3c0.16,0.22,0.38,0.39,0.57,0.59v0.19"/>
	<path class="st1" d="M103,112c-0.22-1.11-0.38-2.75-0.87-4.28c-2.4-7.39-9.97-11.4-17.8-9.61c-8.61,2-14.8,8.77-15.6,17.6
		c-0.66,6.5,2.84,12.8,9.34,15.1c5.24,1.89,10.3,1.1,15-1.71c6.21-3.72,9.57-9.25,10-17.1L103,112z M65.2,139.5
		c-0.42,3.18-0.83,6.17-1.22,9.17c-0.52,3.98-1.05,7.97-1.55,12c-0.06,0.46-0.2,0.67-0.7,0.67c-3.93-0.01-7.86-0.01-11.8-0.02
		c-0.09,0-0.18-0.05-0.39-0.11c0.24-1.88,0.47-3.77,0.72-5.65c0.87-6.6,1.73-13.2,2.61-19.8c1.01-7.56,1.8-15.1,3.09-22.6
		c2.28-13.3,13.6-24.7,26.8-27.6c7.67-1.66,15-0.89,21.7,3.43c6.68,4.3,10.5,10.6,11.4,18.4c1.24,11.1-2.85,20.3-10.7,28
		c-5.18,5.01-11.4,8.19-18.5,9.27c-7.37,1.11-14.3-0.12-20.5-4.46c-0.23-0.16-0.47-0.3-0.86-0.55"/>
	<path class="st1" d="M58.6,76.5c-4.4,3.28-8.65,6.44-12.9,9.61c-0.69-1.08-1.3-2.16-2.02-3.17c-1.85-2.59-4.15-4.52-7.49-4.75
		c-2.78-0.2-5.16,0.72-7.05,2.77c-1.69,1.83-1.91,4.44-0.33,6.51c1.74,2.28,3.64,4.44,5.59,6.55c3.23,3.5,6.6,6.86,9.8,10.4
		c2.91,3.2,5.24,6.78,5.96,11.2c0.86,5.2-0.18,10.1-2.64,14.7c-4.55,8.45-11.7,13.4-21.2,14.9c-4.18,0.68-8.34,0.54-12.4-0.66
		c-5.41-1.59-9.18-5.14-11.6-10.1c-0.86-1.77-1.51-3.64-2.28-5.54c4.73-2.53,9.34-5,14-7.49c0.16,0.39,0.28,0.71,0.43,1.02
		c0.8,1.59,1.45,3.28,2.43,4.75c2.93,4.35,7.65,5.67,12.4,3.52c1.23-0.55,2.42-1.33,3.43-2.23c3.08-2.74,3.66-6.56,1.38-10
		c-1.31-1.98-2.95-3.76-4.55-5.53c-3.82-4.24-7.8-8.35-11.5-12.7c-2.57-2.98-4.32-6.44-4.88-10.4c-0.61-4.36,0.27-8.46,2.53-12.1
		c5.63-9.11,13.8-13.8,24.6-13.5c6.17,0.22,11.1,3.11,14.9,7.91c1.13,1.42,2.19,2.89,3.34,4.43"/>
	<path class="st1" d="M163,125c-0.72,5.49-1.4,10.7-2.1,15.9c-0.04,0.27-0.25,0.62-0.47,0.73c-10.7,4.94-24.7,4.25-33.4-5.69
		c-4.7-5.34-6.67-11.7-6.38-18.7c0.68-16.3,14.2-30.6,30.4-32.6c9.45-1.16,17.7,1.39,24.1,8.74c4.36,5,6.38,11,6.08,17.6
		c-0.2,4.36-0.88,8.69-1.42,13c-0.77,6.14-1.61,12.3-2.42,18.4c-0.03,0.21-0.07,0.43-0.12,0.71h-12.7c0.17-1.41,0.32-2.79,0.5-4.17
		c0.92-7.09,1.94-14.2,2.75-21.3c0.5-4.42,0.19-8.81-1.84-12.9c-2.15-4.35-5.75-6.66-10.5-7.16c-9.82-1.04-19.2,5.78-21.2,15.4
		c-1.38,6.38,0.8,12.5,5.88,15.9c4.95,3.29,10.2,3.3,15.6,1.17c2.74-1.08,5.06-2.8,7.28-5.11"/>
	<path class="st1" d="M217,86.3c-0.58,4.42-1.16,8.77-1.74,13.2c-2.7,0-5.34-0.01-7.98,0c-2.14,0.02-4.09,1.4-4.74,3.4
		c-0.25,0.78-0.34,1.62-0.45,2.44c-1.34,10.2-2.67,20.3-4,30.4c-0.34,2.56-0.66,5.12-1,7.72h-13.3c0.25-1.95,0.48-3.84,0.73-5.73
		c0.86-6.58,1.73-13.2,2.6-19.7c0.75-5.69,1.43-11.4,2.32-17.1c1.19-7.6,8.75-14.4,16.4-14.7c3.66-0.16,7.33-0.03,11.1-0.03"/>
	<path class="st2" d="M288,144v-5.6h-0.03l-2.2,5.6h-0.7l-2.2-5.6h-0.04v5.6h-1.1v-6.71h1.71l2,5.1l1.97-5.1h1.7V144H288z
		 M278.26,138.19V144h-1.1v-5.81h-2.1v-0.9h5.31v0.9H278.26"/>
	<path class="st2" d="M76.3,67.1h3.29l-0.78-4.98L76.3,67.1z M80.11,70.32h-5.47l-1.74,3.41h-3.88l8.55-16h3.74l2.91,16h-3.59
		L80.11,70.32"/>
	<path class="st2" d="M99.7,61h-1.95l-0.66,3.69h1.95c1.18,0,2.11-0.77,2.11-2.23C101.15,61.5,100.57,61,99.7,61L99.7,61z
		 M94.98,57.78h5.12c2.68,0,4.55,1.6,4.55,4.34c0,3.46-2.44,5.78-5.92,5.78h-2.21l-1.04,5.85h-3.34l2.82-16"/>
	<path class="st2" d="M116,67.1h3.29l-0.78-4.98L116,67.1z M119.8,70.32h-5.47l-1.74,3.41h-3.88l8.55-16H121l2.91,16h-3.59
		L119.8,70.32"/>
	<path class="st2" d="M141,73.2c-1.13,0.52-2.37,0.82-3.62,0.82c-4.23,0-6.88-3.17-6.88-7.14c0-5.08,4.27-9.35,9.35-9.35
		c1.27,0,2.42,0.31,3.36,0.82l-0.47,3.83c-0.7-0.78-1.84-1.32-3.24-1.32c-2.91,0-5.5,2.63-5.5,5.68c0,2.32,1.46,4.14,3.76,4.14
		c1.41,0,2.77-0.54,3.69-1.29L141,73.2"/>
	<path class="st2" d="M162,67.3h-6.95l-1.13,6.43h-3.33l2.82-16h3.34l-1.12,6.32h6.95l1.13-6.32h3.34l-2.82,16h-3.34L162,67.3"/>
	<path class="st2" d="M174,73.7l2.82-16h8.86l-0.56,3.22h-5.52l-0.56,3.1h5.07l-0.56,3.22h-5.07l-0.56,3.22h5.52l-0.56,3.22H174"/>
</g>
</svg>
