<svg xmlns="http://www.w3.org/2000/svg" viewBox="0 0 400 400"><defs><style>.cls-1{fill:#fff;}</style></defs><g id="Layer_2" data-name="Layer 2"><g id="Layer_1-2" data-name="Layer 1"><path class="cls-1" d="M200,0C89.54,0,0,89.54,0,200S89.54,400,200,400s200-89.54,200-200S310.46,0,200,0ZM300.5,162.1c.1,2,.1,4.1.1,6.2,0,63.7-48.5,137.2-137.2,137.2a134.35,134.35,0,0,1-73.7-21.8,87.68,87.68,0,0,0,11.5.7,96.93,96.93,0,0,0,59.9-20.6,48.15,48.15,0,0,1-45-33.5,46,46,0,0,0,9.1.9,48.07,48.07,0,0,0,12.7-1.7,48.27,48.27,0,0,1-38.7-47.3v-.6a47.37,47.37,0,0,0,21.8,6,48.2,48.2,0,0,1-15-64.3,136.79,136.79,0,0,0,99.4,50.4,44.19,44.19,0,0,1-1.3-11,48.25,48.25,0,0,1,83.4-33A97.65,97.65,0,0,0,318.1,118a48.19,48.19,0,0,1-21.2,26.7,97.87,97.87,0,0,0,27.7-7.6A98.79,98.79,0,0,1,300.5,162.1Z"/></g></g></svg>